<svg width="45" height="45" viewBox="0 0 45 45" fill="none" xmlns="http://www.w3.org/2000/svg">
<path d="M43.0338 22.3416C43.0338 10.8883 33.9466 1.60352 22.7371 1.60352C11.5274 1.60352 2.44028 10.8883 2.44028 22.3416C2.44028 33.7948 11.5274 43.0796 22.7371 43.0796C33.9466 43.0796 43.0338 33.7948 43.0338 22.3416Z" fill="#141414" stroke="#313131" stroke-width="0.977778"/>
<path d="M26.1395 17.069H31.0192V18.2005H26.1395V17.069ZM21.25 21.546C22.3287 21.0526 22.8937 20.3022 22.8937 19.1426C22.8937 16.8493 21.108 16.293 19.0462 16.293H13.3716V27.8042H19.2052C21.3919 27.8042 23.444 26.7989 23.444 24.4611C23.444 23.0164 22.7298 21.9479 21.25 21.546ZM16.0181 18.2566H18.5007C19.4571 18.2566 20.3155 18.5114 20.3155 19.5728C20.3155 20.55 19.6478 20.9428 18.7012 20.9428H16.0181V18.2566ZM18.8432 25.8499H16.0157V22.6797H18.8994C20.0637 22.6797 20.7999 23.1449 20.7999 24.3233C20.7999 25.4828 19.9219 25.8499 18.8432 25.8499ZM32.9271 23.7574C32.9271 21.2911 31.418 19.2362 28.6881 19.2362C26.0343 19.2362 24.2292 21.1462 24.2292 23.65C24.2292 26.2448 25.9389 28.0263 28.6881 28.0263C30.7697 28.0263 32.1175 27.1309 32.7656 25.221H30.6548C30.4248 25.9339 29.4905 26.308 28.764 26.308C27.3601 26.308 26.6263 25.5226 26.6263 24.1876H32.9099C32.9172 24.0497 32.9271 23.9048 32.9271 23.7574ZM26.6263 22.7429C26.7021 21.6464 27.4677 20.9616 28.6124 20.9616C29.8158 20.9616 30.4175 21.6371 30.5227 22.7429H26.6263Z" fill="white"/>
</svg>
