<svg width="53" height="17" viewBox="0 0 53 17" fill="none" xmlns="http://www.w3.org/2000/svg">
<mask id="mask0_1_2714" style="mask-type:luminance" maskUnits="userSpaceOnUse" x="0" y="0" width="53" height="17">
<path d="M52.5 0.817139H0.5V16.1112H52.5V0.817139Z" fill="white"/>
</mask>
<g mask="url(#mask0_1_2714)">
<mask id="mask1_1_2714" style="mask-type:luminance" maskUnits="userSpaceOnUse" x="0" y="0" width="53" height="16">
<path d="M52.5 0.817139H0.5V15.606H52.5V0.817139Z" fill="white"/>
</mask>
<g mask="url(#mask1_1_2714)">
<path d="M14.0352 0.817139H16.4014V15.606H14.0352V0.817139ZM24.6831 10.8883C24.6831 13.1516 22.7801 13.332 22.2139 13.332C20.7995 13.332 20.5422 12.0081 20.5422 11.2096V5.54956H18.176V11.1977C18.176 12.5997 18.6161 13.7567 19.3875 14.5281C20.069 15.2102 21.09 15.5829 22.1962 15.5829C22.9806 15.5829 24.0915 15.3386 24.6831 14.7985V15.606H27.0493V5.54956H24.6831V10.8883ZM31.7817 2.00024H29.4155V5.54956H27.6408V7.9158H29.4155V15.606H31.7817V7.9158H33.5563V5.54956H31.7817V2.00024ZM41.0081 12.5991C40.4928 13.0623 39.8126 13.319 39.066 13.319C37.4204 13.319 36.2118 12.1105 36.2118 10.4512C36.2118 8.7919 37.3819 7.6342 39.066 7.6342C39.7996 7.6342 40.4928 7.8785 41.0211 8.3417L41.3802 8.6505L42.9756 7.0557L42.5763 6.6954C41.6375 5.8477 40.3911 5.37209 39.0654 5.37209C36.1077 5.37209 33.9598 7.5064 33.9598 10.4387C33.9598 13.3586 36.1591 15.5693 39.0654 15.5693C40.416 15.5693 41.6754 15.0937 42.6024 14.2324L42.988 13.8721L41.3678 12.2785L41.0081 12.5991ZM51.4212 6.42626C50.7397 5.74477 49.9411 5.37209 48.8349 5.37209C48.0505 5.37209 47.162 5.61641 46.5705 6.15591V0.817139H44.2043V15.606H46.5705V10.0661C46.5705 7.8028 48.1783 7.6229 48.7444 7.6229C50.1588 7.6229 50.1198 8.9474 50.1198 9.7448V15.606H52.4862V9.7573C52.4862 8.3553 52.193 7.1982 51.4212 6.42626Z" fill="white"/>
<path d="M38.9881 8.76636C39.4419 8.76636 39.877 8.94656 40.1978 9.26736C40.5187 9.58826 40.6989 10.0234 40.6989 10.4771C40.6989 10.9308 40.5187 11.3659 40.1978 11.6868C39.877 12.0076 39.4419 12.1879 38.9881 12.1879C38.5344 12.1879 38.0992 12.0076 37.7784 11.6868C37.4576 11.3659 37.2773 10.9308 37.2773 10.4771C37.2773 10.0234 37.4576 9.58826 37.7784 9.26736C38.0992 8.94656 38.5344 8.76636 38.9881 8.76636Z" fill="white"/>
<path d="M10.7225 11.8916C9.82276 12.8173 8.6006 13.319 7.31457 13.319C4.67861 13.319 2.76198 11.2486 2.76198 8.4067C2.76198 5.55189 4.67861 3.48146 7.31457 3.48146C8.58816 3.48146 9.79671 3.9825 10.7101 4.89586L11.0697 5.25612L12.6516 3.67431L12.3043 3.31405C10.9928 1.96354 9.21818 1.2312 7.31457 1.2312C3.43102 1.2312 0.511719 4.31732 0.511719 8.4192C0.511719 12.5085 3.44404 15.5823 7.31457 15.5823C9.23118 15.5823 11.0059 14.8369 12.3173 13.4864L12.6646 13.1261L11.0957 11.5189L10.7225 11.8916Z" fill="white"/>
</g>
</g>
</svg>
