<svg width="45" height="45" viewBox="0 0 45 45" fill="none" xmlns="http://www.w3.org/2000/svg">
<path d="M43.5067 22.3416C43.5067 10.8883 34.222 1.60352 22.7686 1.60352C11.3153 1.60352 2.03064 10.8883 2.03064 22.3416C2.03064 33.7948 11.3153 43.0796 22.7686 43.0796C34.222 43.0796 43.5067 33.7948 43.5067 22.3416Z" fill="#141414" stroke="#313131" stroke-width="0.977778"/>
<path d="M26.2704 15.3154H19.6978C18.6248 15.3166 17.596 15.7433 16.8374 16.5021C16.0786 17.2607 15.6519 18.2894 15.6508 19.3625V25.934C15.6519 27.0071 16.0786 28.0359 16.8373 28.7948C17.5959 29.5537 18.6247 29.9807 19.6978 29.9821H26.2704C27.3435 29.9807 28.3722 29.5537 29.1309 28.7948C29.8895 28.0359 30.3163 27.0071 30.3174 25.934V19.3625C30.3163 18.2894 29.8895 17.2607 29.1308 16.5021C28.3721 15.7433 27.3434 15.3166 26.2704 15.3154ZM22.9835 25.9742C22.32 25.9742 21.6712 25.7774 21.1194 25.4086C20.5676 25.0399 20.1376 24.5158 19.8837 23.9027C19.6297 23.2896 19.5634 22.6149 19.693 21.964C19.8224 21.3131 20.1422 20.7153 20.6115 20.2461C21.0808 19.7769 21.6788 19.4575 22.3297 19.3281C22.9806 19.1988 23.6552 19.2654 24.2683 19.5195C24.8814 19.7736 25.4053 20.2038 25.7738 20.7557C26.1423 21.3076 26.3389 21.9564 26.3387 22.62C26.3367 23.5092 25.9825 24.3613 25.3537 24.99C24.7249 25.6186 23.8727 25.9724 22.9835 25.9742ZM27.9241 19.0675C27.768 19.2236 27.5624 19.3206 27.3427 19.3422C27.123 19.3637 26.9026 19.3084 26.7191 19.1857C26.5356 19.063 26.4003 18.8803 26.3363 18.669C26.2724 18.4577 26.2836 18.2308 26.3682 18.0268C26.4528 17.8228 26.6055 17.6546 26.8003 17.5506C26.9949 17.4466 27.2198 17.4134 27.4363 17.4566C27.6528 17.4998 27.8477 17.6167 27.9877 17.7874C28.1276 17.9582 28.2041 18.1722 28.2039 18.393C28.2028 18.6458 28.1024 18.8881 27.9241 19.0675Z" fill="white"/>
</svg>
