<svg width="38" height="84" viewBox="0 0 38 84" fill="none" xmlns="http://www.w3.org/2000/svg">
<g clip-path="url(#clip0_14_4918)">
<mask id="mask0_14_4918" style="mask-type:luminance" maskUnits="userSpaceOnUse" x="0" y="0" width="37" height="84">
<path d="M36.7968 0.755859H0.502945V83.5059H36.7968V0.755859Z" fill="white"/>
</mask>
<g mask="url(#mask0_14_4918)">
<g opacity="0.17">
<g filter="url(#filter0_i_14_4918)">
<path d="M11.2435 31.3656C11.2435 31.3656 14.2782 27.0134 12.3156 20.9692C10.3461 14.9289 5.75971 12.6348 5.75971 12.6348C5.75971 12.6348 2.32765 17.8214 4.24577 23.7093C6.16046 29.6011 11.2435 31.3656 11.2435 31.3656Z" fill="white"/>
<path d="M15.7361 34.4564C15.7361 34.4564 21.0416 33.9838 24.0799 28.7057C27.118 23.4313 24.7957 17.532 24.7957 17.532C24.7957 17.532 19.8702 18.6447 16.7498 24.0601C13.6329 29.4716 15.7361 34.4564 15.7361 34.4564Z" fill="white"/>
<path d="M16.2732 41.4302C13.8174 47.2496 16.4857 51.8913 16.4857 51.8913C16.4857 51.8913 21.6953 50.6489 24.0862 44.9819C26.4736 39.3074 23.4799 33.7969 23.4799 33.7969C23.4799 33.7969 18.7291 35.6109 16.2732 41.4302Z" fill="white"/>
<path d="M28.2645 46.1174C28.2645 46.1174 23.685 48.4269 21.7326 54.471C19.7803 60.5267 22.8253 64.8635 22.8253 64.8635C22.8253 64.8635 27.9014 63.0838 29.8058 57.1882C31.7069 51.2927 28.2645 46.1174 28.2645 46.1174Z" fill="white"/>
<path d="M32.0813 77.9468C32.0813 77.9468 36.4862 74.6123 36.7841 68.3586C37.0786 62.1009 32.4375 58.252 32.4375 58.252C32.4375 58.252 28.6493 61.9295 28.3444 68.3472C28.0431 74.761 32.0813 77.9468 32.0813 77.9468Z" fill="white"/>
<path d="M15.0598 19.7191C15.0598 19.7191 19.7558 17.9737 21.1328 11.7352C22.5131 5.49667 19.8448 0.755859 19.8448 0.755859C19.8448 0.755859 14.4056 2.95096 13.0595 9.03704C11.7168 15.1193 15.0598 19.7191 15.0598 19.7191Z" fill="white"/>
<path d="M11.2396 44.6315C11.2396 44.6315 12.983 39.4753 9.50646 34.3496C6.02302 29.22 1.03592 28.5303 1.03592 28.5303C1.03592 28.5303 -0.868496 34.6125 2.52246 39.6125C5.91341 44.6163 11.2396 44.6315 11.2396 44.6315Z" fill="white"/>
<path d="M15.131 58.2368C15.131 58.2368 15.7989 52.7796 11.3873 48.641C6.96875 44.4985 1.96795 45.0625 1.96795 45.0625C1.96795 45.0625 1.324 51.4649 5.62607 55.5006C9.93497 59.5326 15.131 58.2368 15.131 58.2368Z" fill="white"/>
<path d="M21.0564 69.4861C21.0564 69.4861 20.2171 64.0595 14.8806 61.6051C9.54075 59.1433 4.93041 61.3651 4.93041 61.3651C4.93041 61.3651 6.06074 67.6837 11.2603 70.0846C16.4597 72.474 21.0564 69.4861 21.0564 69.4861Z" fill="white"/>
<path d="M23.6454 74.1588C18.0828 72.4286 13.7397 75.2448 13.7397 75.2448C13.7397 75.2448 15.5378 81.3653 20.9565 83.0535C26.3822 84.7418 30.6226 81.1634 30.6226 81.1634C30.6226 81.1634 29.2078 75.885 23.6454 74.1588Z" fill="white"/>
</g>
</g>
</g>
</g>
<defs>
<filter id="filter0_i_14_4918" x="0.502945" y="-0.229002" width="36.2946" height="83.7351" filterUnits="userSpaceOnUse" color-interpolation-filters="sRGB">
<feFlood flood-opacity="0" result="BackgroundImageFix"/>
<feBlend mode="normal" in="SourceGraphic" in2="BackgroundImageFix" result="shape"/>
<feColorMatrix in="SourceAlpha" type="matrix" values="0 0 0 0 0 0 0 0 0 0 0 0 0 0 0 0 0 0 127 0" result="hardAlpha"/>
<feOffset dy="-0.984861"/>
<feGaussianBlur stdDeviation="0.492432"/>
<feComposite in2="hardAlpha" operator="arithmetic" k2="-1" k3="1"/>
<feColorMatrix type="matrix" values="0 0 0 0 1 0 0 0 0 1 0 0 0 0 1 0 0 0 0.25 0"/>
<feBlend mode="normal" in2="shape" result="effect1_innerShadow_14_4918"/>
</filter>
<clipPath id="clip0_14_4918">
<rect width="36.9941" height="82.75" fill="white" transform="translate(0.502945 0.755859)"/>
</clipPath>
</defs>
</svg>
