<svg width="47" height="51" viewBox="0 0 47 51" fill="none" xmlns="http://www.w3.org/2000/svg">
<path d="M44.606 22.8218C44.606 11.1999 35.1846 1.77832 23.5626 1.77832C11.9405 1.77832 2.5191 11.1999 2.5191 22.8218C2.5191 34.4437 11.9405 43.8653 23.5626 43.8653C35.1846 43.8653 44.606 34.4437 44.606 22.8218Z" fill="#141414" stroke="#313131" stroke-width="0.956522"/>
<path d="M31.4611 30.0952L31.4649 30.0946V24.4566C31.4649 21.6984 30.8932 19.5737 27.789 19.5737C26.2967 19.5737 25.2952 20.4244 24.8864 21.2308H24.8432V19.8312H21.8998V30.0946H24.9646V25.0125C24.9646 23.6744 25.2088 22.3805 26.8042 22.3805C28.3761 22.3805 28.3995 23.9076 28.3995 25.0984V30.0952H31.4611Z" fill="white"/>
<path d="M16.1607 19.5737H19.9868V30.0952H16.1607V19.5737Z" fill="white"/>
<path d="M18.0737 14.791C17.0177 14.791 16.1607 15.6439 16.1607 16.6951C16.1607 17.7462 17.0177 18.617 18.0737 18.617C19.1298 18.617 19.9868 17.7462 19.9868 16.6951C19.9861 15.6439 19.1292 14.791 18.0737 14.791Z" fill="white"/>
</svg>
