<svg width="47" height="45" viewBox="0 0 47 45" fill="none" xmlns="http://www.w3.org/2000/svg">
<path d="M44.5434 22.8218C44.5434 11.1999 35.122 1.77832 23.4999 1.77832C11.878 1.77832 2.45654 11.1999 2.45654 22.8218C2.45654 34.4437 11.878 43.8653 23.4999 43.8653C35.122 43.8653 44.5434 34.4437 44.5434 22.8218Z" fill="#141414" stroke="#313131" stroke-width="0.956522"/>
<path d="M23.3384 32.2095C18.3305 32.2095 14.2515 28.1305 14.2515 23.1226C14.2515 18.1146 18.3305 14.0356 23.3384 14.0356C28.3463 14.0356 32.4254 18.1146 32.4254 23.1226C32.4254 28.1305 28.3463 32.2095 23.3384 32.2095ZM31.0037 24.3665C30.7372 24.2816 28.6007 23.6435 26.1654 24.0353C27.1791 26.826 27.5951 29.0957 27.6759 29.5682C29.4165 28.3889 30.6564 26.5231 31.0037 24.3665ZM26.3714 30.279C26.2543 29.6005 25.8019 27.2258 24.7155 24.3948L24.6671 24.4108C20.2852 25.9375 18.7141 28.9746 18.5809 29.2613C19.8894 30.2871 21.5492 30.9009 23.3424 30.9009C24.4127 30.8969 25.4344 30.6788 26.3714 30.279ZM17.5752 28.3244C17.7489 28.0214 19.8813 24.4957 23.8836 23.1993C23.9846 23.163 24.0856 23.1347 24.1865 23.1064C23.9927 22.6621 23.7786 22.2219 23.5565 21.7898C19.6834 22.9449 15.9235 22.9004 15.5802 22.8883L15.5761 23.1266C15.5802 25.1257 16.3353 26.9472 17.5752 28.3244ZM15.7376 21.5435C16.0849 21.5515 19.2835 21.5637 22.9143 20.5984C21.626 18.3125 20.2407 16.3901 20.0348 16.1075C17.866 17.1332 16.2465 19.1324 15.7376 21.5435ZM21.521 15.5905C21.735 15.8813 23.1445 17.7955 24.4127 20.1339C27.171 19.1 28.3423 17.5291 28.4836 17.3311C27.1105 16.1075 25.3092 15.3724 23.3384 15.3724C22.7124 15.3724 22.1066 15.4451 21.521 15.5905ZM29.3479 18.2277C29.1863 18.4458 27.8819 20.1138 25.0144 21.2849C25.1962 21.6565 25.3698 22.0322 25.5313 22.4117C25.592 22.5491 25.6444 22.6823 25.6969 22.8115C28.2817 22.4844 30.8463 23.0094 31.1047 23.062C31.0885 21.2284 30.4383 19.5484 29.356 18.2277H29.3479Z" fill="white"/>
</svg>
