<svg width="47" height="45" viewBox="0 0 47 45" fill="none" xmlns="http://www.w3.org/2000/svg">
<path d="M44.5434 22.8218C44.5434 11.1999 35.122 1.77832 23.4999 1.77832C11.878 1.77832 2.45654 11.1999 2.45654 22.8218C2.45654 34.4437 11.878 43.8653 23.4999 43.8653C35.122 43.8653 44.5434 34.4437 44.5434 22.8218Z" fill="#141414" stroke="#313131" stroke-width="0.956522"/>
<path d="M27.0874 26.5166C26.2657 27.2553 25.1809 27.6647 23.9905 27.6647C21.3662 27.6647 19.4391 25.7375 19.4391 23.0914C19.4391 20.4454 21.305 18.5994 23.9905 18.5994C25.1602 18.5994 26.2658 18.9889 27.1081 19.7276L27.6808 20.22L30.2248 17.6769L29.5881 17.1024C28.091 15.7506 26.1036 14.9922 23.9896 14.9922C19.273 14.9922 15.8478 18.3957 15.8478 23.0716C15.8478 27.7278 19.3551 31.2531 23.9896 31.2531C26.1432 31.2531 28.1515 30.4945 29.6297 29.1212L30.2446 28.5466L27.661 26.0053L27.0874 26.5166Z" fill="white"/>
<path d="M23.8648 20.4062C24.5883 20.4062 25.2822 20.6937 25.7938 21.2052C26.3055 21.7169 26.5928 22.4107 26.5928 23.1342C26.5928 23.8579 26.3055 24.5517 25.7938 25.0634C25.2822 25.5749 24.5883 25.8623 23.8648 25.8623C23.1413 25.8623 22.4473 25.5749 21.9358 25.0634C21.4242 24.5517 21.1367 23.8579 21.1367 23.1342C21.1367 22.4107 21.4242 21.7169 21.9358 21.2052C22.4473 20.6937 23.1413 20.4062 23.8648 20.4062Z" fill="white"/>
</svg>
