<svg width="71" height="20" viewBox="0 0 71 20" fill="none" xmlns="http://www.w3.org/2000/svg">
<mask id="mask0_1_2757" style="mask-type:luminance" maskUnits="userSpaceOnUse" x="0" y="0" width="71" height="20">
<path d="M70.827 0.356201H0.826996V19.5719H70.827V0.356201Z" fill="white"/>
</mask>
<g mask="url(#mask0_1_2757)">
<path d="M20.1662 13.4365C19.4489 13.3966 18.7516 13.185 18.133 12.8196C17.5144 12.4542 16.9925 11.9456 16.6113 11.3365C17.0711 7.67183 18.4094 6.53261 20.1799 6.53261C21.9505 6.53261 23.2956 7.90516 23.2956 9.964C23.2956 12.0228 21.9231 13.3954 20.1799 13.3954M20.1799 4.24046C18.9304 4.18982 17.7028 4.57996 16.7118 5.34268C15.7208 6.1054 15.0294 7.19217 14.7584 8.413C14.1709 7.18223 13.7265 5.88816 13.4339 4.55614H9.0623V9.9777C9.0623 11.9473 8.17014 13.4091 6.42014 13.4091C4.67014 13.4091 3.67504 11.9542 3.67504 9.9777V4.55614H1.16328V9.9777C1.10627 11.4801 1.62411 12.9477 2.61132 14.0816C3.09317 14.6063 3.6818 15.0217 4.33759 15.2999C4.99339 15.578 5.70115 15.7126 6.41328 15.6944C9.43975 15.6944 11.5603 13.3679 11.5603 10.0395V6.37477C12.0743 8.3468 12.924 10.2156 14.0721 11.8993L12.727 19.5718H15.2799L16.1652 14.1365C16.4583 14.3889 16.7703 14.6183 17.0986 14.8228C17.9514 15.3614 18.9317 15.6645 19.9398 15.7012H20.1731C20.9229 15.709 21.6666 15.565 22.3594 15.2779C23.0521 14.9907 23.6796 14.5664 24.2041 14.0304C24.7285 13.4944 25.1391 12.8578 25.4111 12.159C25.6831 11.4602 25.8109 10.7135 25.7868 9.964C25.8043 9.2172 25.6715 8.4746 25.3963 7.78016C25.1211 7.08575 24.7091 6.45376 24.1847 5.92175C23.6604 5.38974 23.0345 4.96857 22.3441 4.68328C21.6538 4.39799 20.9132 4.2544 20.1662 4.26104" fill="white"/>
<path d="M56.2781 5.7502V4.59725H53.8075V15.3237H56.3124V11.1237C56.3124 8.53651 56.5457 6.67666 60.0182 6.91686V4.47372C58.3986 4.35019 57.1359 4.68647 56.2781 5.75706" fill="white"/>
<path d="M38.9225 4.59058L37.1108 12.0984L35.1755 4.59058H31.9912L30.0559 12.0984L28.2441 4.59058H25.7118L28.4912 15.3308H31.4971L33.5833 7.70627L35.649 15.3308H38.6549L41.5922 4.59058H38.9225Z" fill="white"/>
<path d="M47.0955 13.4435C45.318 13.4435 43.9867 12.0366 43.9867 10.0121C43.9867 7.98762 45.3592 6.58076 47.0955 6.58076C48.8318 6.58076 50.2386 7.90527 50.2386 9.9641C50.2386 12.0229 48.8661 13.3955 47.1229 13.3955M47.1229 4.2337C46.372 4.22314 45.6266 4.36488 44.9319 4.65035C44.2372 4.93582 43.6076 5.35911 43.081 5.89466C42.5544 6.43021 42.1419 7.06692 41.8682 7.76634C41.5945 8.4658 41.4654 9.2134 41.4886 9.9641C41.4623 10.7174 41.5879 11.4682 41.858 12.1719C42.128 12.8756 42.5371 13.5176 43.0606 14.0598C43.5842 14.602 44.2116 15.0333 44.9054 15.3278C45.5992 15.6223 46.3452 15.7741 47.0989 15.7741C47.8526 15.7741 48.5987 15.6223 49.2925 15.3278C49.9863 15.0333 50.6137 14.602 51.1372 14.0598C51.6608 13.5176 52.0698 12.8756 52.3399 12.1719C52.61 11.4682 52.7356 10.7174 52.7092 9.9641C52.7277 9.2177 52.5957 8.4752 52.3213 7.78078C52.0468 7.0864 51.6355 6.45434 51.1117 5.92223C50.5879 5.39012 49.9624 4.96884 49.2724 4.68347C48.5824 4.3981 47.8421 4.25448 47.0955 4.26115" fill="white"/>
<path d="M63.6005 10.0533H64.1769L67.6701 15.3307H70.4906L66.4759 9.4768C67.4415 9.0786 68.2667 8.4019 68.846 7.53283C69.4254 6.66378 69.7328 5.64184 69.7289 4.59738H67.2377C67.2377 6.91012 65.4122 7.78855 63.6005 7.78855V0.356201H61.0955V15.3307H63.5936L63.6005 10.0533Z" fill="white"/>
</g>
</svg>
